<svg xmlns="http://www.w3.org/2000/svg" viewBox="-.05 -.05 35.05 19.05" font-family="Open Sans,Noto Sans,Droid Sans,Arial,sans-serif" font-weight="bold" font-size=".5"><style>[data-room]{fill:#d2b48c;stroke:#000;stroke-width:.1}.a{fill:none;stroke:#d2b48c;stroke-width:.13}.b{fill:white;stroke:none;transform:scale(.04);}text{fill:#fff;stroke:none;text-anchor:middle;dominant-baseline:middle;}</style><defs><path id="a" class="a" d="m0-.15v.3"/><path id="c" class="a" d="m-.15 0h.3"/><path id="b" class="a" d="m0-.3v.6"/><path id="d" class="a" d="m-.3 0h.6"/><path id="mToilets" class="b" d="m0-7.75a1 1 0 000 3.3 1 1 0 000-3.3m-1.3 3.6c-.8 0-1.5.7-1.5 1.6v3.7c0 .7 1 .7 1 0v-3.4h.3v9.4c0 .9 1.3.9 1.3 0v-5.5h.3v5.5c0 .9 1.4.9 1.4 0v-9.4h.2v3.4c0 .7 1.1.7 1.1 0v-3.7c0-.8-.7-1.6-1.6-1.6"/><path id="fToilets" class="b" d="m0-7.8a1 1 0 000 3.3 1 1 0 000-3.3m-.1 10.8v4.2c0 .7-1.2.7-1.2 0v-4.2h-1.5l1.6-5.5h-.2l-.9 3.1c-.3.7-1.2.4-1-.3l1-3.4c.2-.4.6-1.1 1.5-1.1h1.6c.9 0 1.4.7 1.5 1.1l1.1 3.4c.2.7-.8 1-1 .3l-.9-3.1h-.3l1.6 5.5h-1.5v4.2c0 .7-1.1.7-1.1 0v-4.2"/><path id="dToilets" class="b" d="m-1.35-7.8a1 1 0 000 3.3 1 1 0 000-3.3m5.2 13.9-1.3-3.3c-.2-.4-.5-.6-1-.6h-1.8c-1 0-1.8-.7-2-1.6l-.3-3.4c0-.8.5-1.2 1.2-1.2.6 0 1.1.5 1.2 1.2.1.7.1 1.1.1 1.1h2.3c.3 0 .5.2.5.5 0 .2-.2.5-.5.5h-2.2l.1.6c0 .4.3.7.7.7h1.1c.8 0 1.6.5 1.9 1.3l1.4 3.5c.1.1.1.2.1.3 0 .5-.3.8-.8.8m-5.4-.1c1.7 0 3-1.1 3.6-2.6l.5 1.3c-.7 1.4-2.2 2.3-4.1 2.3-2.5 0-4.5-2-4.5-4.5 0-1.9 1.1-3.5 2.7-4.2l.1 1c-1.1.6-1.9 1.8-1.9 3.1 0 2 1.6 3.6 3.6 3.6"/></defs><path data-room="1" d="M15 3h2V7h3V9H17v3h3v2H17v3H15V16H12V12h3z"/><path data-room="2" d="M17 9h3v3h-3z"/><path data-room="3" d="M17 14h3v4h-3z"/><path data-room="4" d="M6 11h6v6h-6z"/><path data-room="5" d="M8 17h4v2h-4z"/><path data-room="6" d="M4 8H9v3H6v6H8v2H4z"/><path data-room="7" d="M4 8h4v1h-4z"/><path data-room="8" d="M3 8h1v1h-1z"/><path data-room="9" d="M8 8h1v1h-1z"/><path data-room="10" d="M12 11h1v1h-1z"/><path data-room="11" d="M13 11h1v1h-1z"/><path data-room="12" d="M14 11h1v1h-1z"/><path data-room="13" d="M12 16h1v1h-1z"/><path data-room="14" d="M13 16h1v1h-1z"/><path data-room="15" d="M14 16h1v1h-1z"/><path data-room="16" d="M14 8h1v1h-1z"/><path data-room="17" d="M9 9h6v1h-6z"/><path data-room="18" d="M9 8h1v1h-1z"/><path data-room="19" d="M10 8h1v1h-1z"/><path data-room="20" d="M11 8h1v1h-1z"/><path data-room="21" d="M12 8h1v1h-1z"/><path data-room="22" d="M13 8h1v1h-1z"/><path data-room="23" d="M9 10h2v1h-2z"/><path data-room="24" d="M11 10h1v1h-1z"/><path data-room="25" d="M12 10h1v1h-1z"/><path data-room="26" d="M13 10h1v1h-1z"/><path data-room="27" d="M14 10h1v1h-1z"/><path data-room="28" d="M20 7h13v2h-13z"/><path data-room="29" d="M20 4h3v3h-3z"/><path data-room="30" d="M23 4h3v3h-3z"/><path data-room="31" d="M26 4h3v3h-3z"/><path data-room="32" d="M29 4h3v3h-3z"/><path data-room="33" d="M32 4h3v3h-3z"/><path data-room="34" d="M20 12h13v2h-13z"/><path data-room="35" d="M20 9h3v3h-3z"/><path data-room="36" d="M23 9h3v3h-3z"/><path data-room="37" d="M26 9h3v3h-3z"/><path data-room="38" d="M29 9h3v3h-3z"/><path data-room="39" d="M32 9h3v3h-3z"/><path data-room="40" d="M20 14h3v3h-3z"/><path data-room="41" d="M23 14h3v3h-3z"/><path data-room="42" d="M26 14h3v3h-3z"/><path data-room="43" d="M29 14h3v3h-3z"/><path data-room="44" d="M32 14h3v3h-3z"/><path data-room="45" d="M2 3h13v2h-13z"/><path data-room="46" d="M0 3h2v2h-2z"/><path data-room="47" d="M12 0h3v3h-3z"/><path data-room="48" d="M9 5h3v3h-3z"/><path data-room="49" d="M12 5h3v3h-3z"/><path data-room="50" d="M9 0h3v3h-3z"/><path data-room="51" d="M0 0h3v3h-3z"/><path data-room="52" d="M3 0h3v3h-3z"/><path data-room="53" d="M6 0h3v3h-3z"/><path data-room="54" d="M3 5h3v3h-3z"/><path data-room="55" d="M6 5h3v3h-3z"/><path data-room="56" d="M0 5h3v3h-3z"/><use href="#d" x="16" y="17"/><use href="#d" x="18.5" y="9"/><use href="#d" x="18.5" y="12"/><use href="#b" x="17" y="14.5"/><use href="#b" x="12" y="15"/><use href="#b" x="12" y="13"/><use href="#c" x="11.5" y="17"/><use href="#c" x="8.5" y="17"/><use href="#d" x="6.5" y="17"/><use href="#d" x="6.5" y="11"/><use href="#c" x="4.5" y="9"/><use href="#c" x="7.5" y="9"/><use href="#a" x="4" y="8.5"/><use href="#a" x="8" y="8.5"/><use href="#c" x="12.5" y="12"/><use href="#c" x="13.5" y="12"/><use href="#c" x="14.5" y="12"/><use href="#c" x="12.5" y="16"/><use href="#c" x="13.5" y="16"/><use href="#c" x="14.5" y="16"/><use href="#a" x="15" y="8.5"/><use href="#a" x="15" y="9.5"/><use href="#a" x="9" y="9.5"/><use href="#c" x="9.5" y="9"/><use href="#c" x="10.5" y="9"/><use href="#c" x="11.5" y="9"/><use href="#c" x="12.5" y="9"/><use href="#c" x="13.5" y="9"/><use href="#c" x="10.5" y="10"/><use href="#c" x="11.5" y="10"/><use href="#c" x="12.5" y="10"/><use href="#c" x="13.5" y="10"/><use href="#c" x="14.5" y="10"/><use href="#c" x="10.5" y="11"/><use href="#b" x="20" y="8"/><use href="#c" x="20.5" y="7"/><use href="#c" x="23.5" y="7"/><use href="#c" x="26.5" y="7"/><use href="#c" x="29.5" y="7"/><use href="#c" x="32.5" y="7"/><use href="#b" x="20" y="13"/><use href="#c" x="20.5" y="12"/><use href="#c" x="23.5" y="12"/><use href="#c" x="26.5" y="12"/><use href="#c" x="29.5" y="12"/><use href="#c" x="32.5" y="12"/><use href="#c" x="20.5" y="14"/><use href="#c" x="23.5" y="14"/><use href="#c" x="26.5" y="14"/><use href="#c" x="29.5" y="14"/><use href="#c" x="32.5" y="14"/><use href="#a" x="26" y="16.5"/><use href="#a" x="32" y="16.5"/><use href="#a" x="26" y="9.5"/><use href="#a" x="32" y="9.5"/><use href="#a" x="20" y="9.5"/><use href="#b" x="15" y="4"/><use href="#c" x="2.5" y="3"/><use href="#c" x="5.5" y="3"/><use href="#c" x="8.5" y="3"/><use href="#c" x="11.5" y="3"/><use href="#c" x="14.5" y="3"/><use href="#a" x="2" y="4"/><use href="#c" x="2.5" y="5"/><use href="#c" x="5.5" y="5"/><use href="#c" x="8.5" y="5"/><use href="#c" x="11.5" y="5"/><use href="#c" x="14.5" y="5"/><use href="#a" x="3" y=".5"/><use href="#a" x="6" y=".5"/><use href="#a" x="6" y="7.5"/><use href="#a" x="12" y="7.5"/><use href="#c" x="4.5" y="8"/><use href="#c" x="7.5" y="8"/><use href="#c" x="11.5" y="8"/><use href="#c" x="12.5" y="8"/><text data-label-for="1"><tspan x="14.5" y="13.8">Main</tspan><tspan x="14.5" y="14.3">Reception</tspan></text><text x="18.5" y="10.5" data-label-for="2">Library</text><text data-label-for="3"><tspan x="18.5" y="15.8">Lecture</tspan><tspan x="18.5" y="16.3">Hall</tspan></text><text data-label-for="4"><tspan x="9" y="13.8">Main</tspan><tspan x="9" y="14.3">Hall</tspan></text><text x="10" y="18" data-label-for="5">Kitchen</text><text transform="translate(5 13.5) rotate(-90)" data-label-for="6">Backstage</text><text x="6" y="8.5" data-label-for="7">Props</text><text data-label-for="8"><tspan x="3.5" y="8.4" font-size=".2">Dressing</tspan><tspan x="3.5" y="8.6" font-size=".2">Room</tspan></text><text data-label-for="9"><tspan x="8.5" y="8.4" font-size=".2">Dressing</tspan><tspan x="8.5" y="8.6" font-size=".2">Room</tspan></text><use href="#dToilets" x="12.5" y="11.5" data-label-for="10"/><use href="#fToilets" x="13.5" y="11.5" data-label-for="11"/><use href="#mToilets" x="14.5" y="11.5" data-label-for="12"/><use href="#dToilets" x="12.5" y="16.5" data-label-for="13"/><use href="#fToilets" x="13.5" y="16.5" data-label-for="14"/><use href="#mToilets" x="14.5" y="16.5" data-label-for="15"/><text data-label-for="16"><tspan x="14.5" y="8.4" font-size=".2">Medical</tspan><tspan x="14.5" y="8.6" font-size=".2">room</tspan></text><text x="12" y="9.5" data-label-for="17">Staff corridor</text><text data-label-for="18"><tspan x="9.5" y="8.4" font-size=".2">Admin</tspan><tspan x="9.5" y="8.6" font-size=".2">office</tspan></text><text data-label-for="19"><tspan x="10.5" y="8.4" font-size=".2">Admin</tspan><tspan x="10.5" y="8.6" font-size=".2">office</tspan></text><text data-label-for="20"><tspan x="11.5" y="8.4" font-size=".2">IT</tspan><tspan x="11.5" y="8.6" font-size=".2">office</tspan></text><text data-label-for="21"><tspan x="12.5" y="8.4" font-size=".2">Server</tspan><tspan x="12.5" y="8.6" font-size=".2">room</tspan></text><text data-label-for="22"><tspan x="13.5" y="8.4" font-size=".2">Admin</tspan><tspan x="13.5" y="8.6" font-size=".2">office</tspan></text><text data-label-for="23"><tspan x="10" y="10.3" font-size=".2">Staff</tspan><tspan x="10" y="10.5" font-size=".2">Break</tspan><tspan x="10" y="10.7" font-size=".2">Room</tspan></text><text data-label-for="24"><tspan x="11.5" y="10.4" font-size=".2">Head's</tspan><tspan x="11.5" y="10.6" font-size=".2">office</tspan></text><use href="#dToilets" x="12.5" y="10.5" data-label-for="25"/><use href="#fToilets" x="13.5" y="10.5" data-label-for="26"/><use href="#mToilets" x="14.5" y="10.5" data-label-for="27"/><text data-label-for="28"><tspan x="26.5" y="7.8">Humanities</tspan><tspan x="26.5" y="8.3">corridor</tspan></text><text data-label-for="29"><tspan x="21.5" y="5.3">Humanities</tspan><tspan x="21.5" y="5.8">office</tspan></text><text data-label-for="30"><tspan x="24.5" y="5.3">Languages</tspan><tspan x="24.5" y="5.8">classroom</tspan></text><text data-label-for="31"><tspan x="27.5" y="5.3">History</tspan><tspan x="27.5" y="5.8">classroom</tspan></text><text data-label-for="32"><tspan x="30.5" y="5.3">Geography</tspan><tspan x="30.5" y="5.8">classroom</tspan></text><text data-label-for="33"><tspan x="33.5" y="5.3">Religious</tspan><tspan x="33.5" y="5.8">classroom</tspan></text><text data-label-for="34"><tspan x="26.5" y="12.8">Maths and English</tspan><tspan x="26.5" y="13.3">Corridor</tspan></text><text data-label-for="35"><tspan x="21.5" y="10.3">English</tspan><tspan x="21.5" y="10.8">office</tspan></text><text data-label-for="36"><tspan x="24.5" y="10.3">English</tspan><tspan x="24.5" y="10.8">classroom</tspan></text><text data-label-for="37"><tspan x="27.5" y="10.3">English</tspan><tspan x="27.5" y="10.8">classroom</tspan></text><text data-label-for="38"><tspan x="30.5" y="10.3">English</tspan><tspan x="30.5" y="10.8">classroom</tspan></text><text data-label-for="39"><tspan x="33.5" y="10.3">English</tspan><tspan x="33.5" y="10.8">classroom</tspan></text><text data-label-for="40"><tspan x="21.5" y="15.3">Maths</tspan><tspan x="21.5" y="15.8">office</tspan></text><text data-label-for="41"><tspan x="24.5" y="15.3">Maths</tspan><tspan x="24.5" y="15.8">classroom</tspan></text><text data-label-for="42"><tspan x="27.5" y="15.3">Maths</tspan><tspan x="27.5" y="15.8">classroom</tspan></text><text data-label-for="43"><tspan x="30.5" y="15.3">Maths</tspan><tspan x="30.5" y="15.8">classroom</tspan></text><text data-label-for="44"><tspan x="33.5" y="15.3">Maths</tspan><tspan x="33.5" y="15.8">classroom</tspan></text><text data-label-for="45"><tspan x="8.5" y="3.8">Sciences and Arts</tspan><tspan x="8.5" y="4.3">Corridor</tspan></text><text data-label-for="46"><tspan x="1" y="3.8">Boiler</tspan><tspan x="1" y="4.3">Room</tspan></text><text data-label-for="47"><tspan x="13.5" y="1.3">Sciences</tspan><tspan x="13.5" y="1.8">office</tspan></text><text data-label-for="48"><tspan x="10.5" y="6.3">IT</tspan><tspan x="10.5" y="6.8">classroom</tspan></text><text data-label-for="49"><tspan x="13.5" y="6.3">Computing</tspan><tspan x="13.5" y="6.8">classroom</tspan></text><text data-label-for="50"><tspan x="10.5" y="1.3">Business</tspan><tspan x="10.5" y="1.8">classroom</tspan></text><text data-label-for="51"><tspan x="1.5" y="1.3">Chemistry</tspan><tspan x="1.5" y="1.8">classroom</tspan></text><text data-label-for="52"><tspan x="4.5" y="1.3">Physics</tspan><tspan x="4.5" y="1.8">classroom</tspan></text><text data-label-for="53"><tspan x="7.5" y="1.3">Biology</tspan><tspan x="7.5" y="1.8">classroom</tspan></text><text data-label-for="54"><tspan x="4.5" y="6.3">Music</tspan><tspan x="4.5" y="6.8">classroom</tspan></text><text data-label-for="55"><tspan x="7.5" y="6.3">Drama</tspan><tspan x="7.5" y="6.8">classroom</tspan></text><text data-label-for="56"><tspan x="1.5" y="6.3">Art</tspan><tspan x="1.5" y="6.8">classroom</tspan></text></svg>