<svg
        xmlns="http://www.w3.org/2000/svg" viewBox="-.1 -1.1 10.2 7.4"
        stroke="#000" stroke-linecap="round" stroke-linejoin="round"
        fill="none"
>
    <defs stroke="#999" stroke-width=".05">
        <pattern id="horLine" width=".05" height=".05" patternUnits="userSpaceOnUse">
            <path id="fff" d="M0 0h1v1h-1" fill="#fff" stroke="none"/>
            <path d="M0 0h1"/>
        </pattern>
        <pattern id="verLine" width=".05" height=".05" patternUnits="userSpaceOnUse">
            <use href="#fff"/>
            <path d="M0 0v1"/>
        </pattern>
    </defs>

    <g stroke-width=".2">
        <path fill="url(#verLine)" d="M1 0 0 1V6L1 5M9 0l1 1V6L9 5"/>
        <path fill="url(#horLine)" d="M0 6H4.5v.2h1V6H10L9 5C7 5 6 5 5 6 4 5 3 5 1 5Z"/>

        <path fill="#777" d="M5 6C6 5 7 5 9 5V0C7 0 6 0 5 1"/>
        <use id="backPara" href="#frontPara" transform="scale(-1 1)" transform-origin="5" stroke-width=".1"/>
        <use href="#backPara" y="1"/>
        <use href="#backPara" y="2"/>
        <use href="#backPara" y="3"/>

        <path fill="#fff" d="M1 0v5c2 0 3 0 4 1C6.29 4.71 7 5.6 8 4V-1C6.98.5 6.23-.24 5 1 4 0 3 0 1 0ZM5 6V1"/>
    </g>

    <g id="frontDef" stroke-width=".1">
        <path d="M1.7.7c.18 0 .42 0 .6.01M6 1C6.17.93 6.34.87 6.42.85"/>
        <path stroke="#999" d="M2.5.724c.073.004.133.008.2.013M6.6.82C6.66.8 6.687.79 6.733.773"/>
        <g id="frontPara">
            <path id="sentence" d="M1.7.9c.6 0 1.3 0 2.3.3M6 1.2C6.54.97 7.01.95 7.5.46"/>
            <use href="#sentence" y=".2"/>
            <use href="#sentence" y=".4" stroke="#999"/>
        </g>
    </g>
    <use href="#frontDef" y="1"/>
    <use href="#frontDef" y="2"/>
    <use href="#frontDef" y="3"/>
</svg>